<?xml version="1.0" standalone="no"?>
<!DOCTYPE svg PUBLIC "-//W3C//DTD SVG 20010904//EN"
 "http://www.w3.org/TR/2001/REC-SVG-20010904/DTD/svg10.dtd">
<svg version="1.0" xmlns="http://www.w3.org/2000/svg"
 width="200.000000pt" height="198.000000pt" viewBox="0 0 200.000000 198.000000"
 preserveAspectRatio="xMidYMid meet">

<g transform="translate(0.000000,198.000000) scale(0.100000,-0.100000)"
fill="#000000" stroke="none">
<path d="M403 1298 c-4 -7 -9 -97 -11 -200 l-4 -188 30 0 30 0 -1 111 c-2 105
-1 112 21 130 19 15 28 16 44 8 19 -10 20 -18 15 -107 -3 -54 -8 -107 -12
-119 -7 -21 -4 -23 28 -23 l35 0 7 65 c11 101 3 190 -20 215 -20 22 -55 24
-99 5 -18 -8 -19 -5 -12 53 7 61 7 62 -18 62 -14 0 -28 -6 -33 -12z"/>
<path d="M130 1291 c-27 -7 -50 -43 -50 -78 l0 -23 49 27 c27 16 53 25 56 21
4 -4 2 -58 -4 -120 -7 -67 -8 -132 -4 -158 8 -45 9 -45 52 -48 36 -3 43 -1 38
12 -26 67 -32 245 -11 300 8 21 33 20 63 0 19 -14 25 -14 32 -3 21 33 10 58
-28 68 -42 12 -154 13 -193 2z"/>
<path d="M688 1195 c-53 -30 -84 -141 -57 -212 20 -52 48 -73 100 -73 55 0 93
27 103 73 8 33 4 34 -28 2 -30 -30 -74 -33 -107 -6 -20 16 -21 21 -10 34 7 9
34 24 59 33 78 29 98 58 79 115 -14 46 -85 63 -139 34z m90 -63 c3 -18 -4 -26
-32 -37 -49 -21 -66 -19 -66 7 0 34 29 59 64 56 23 -2 32 -9 34 -26z"/>
<path d="M803 730 c0 -36 2 -50 4 -32 2 17 2 47 0 65 -2 17 -4 3 -4 -33z"/>
<path d="M453 725 c0 -33 2 -45 4 -27 2 18 2 45 0 60 -2 15 -4 0 -4 -33z"/>
<path d="M503 725 c0 -33 2 -45 4 -27 2 18 2 45 0 60 -2 15 -4 0 -4 -33z"/>
<path d="M901 764 c0 -11 3 -14 6 -6 3 7 2 16 -1 19 -3 4 -6 -2 -5 -13z"/>
<path d="M1061 738 c-1 -27 3 -48 7 -48 4 0 6 17 4 38 -5 58 -10 62 -11 10z"/>
<path d="M1139 768 c7 -10 11 -29 9 -43 -3 -13 -1 -22 3 -19 15 9 10 51 -8 65
-16 13 -17 12 -4 -3z"/>
<path d="M870 714 c0 -6 7 -19 16 -30 14 -18 14 -18 3 6 -14 31 -19 36 -19 24z"/>
<path d="M1090 686 c0 -2 7 -7 16 -10 8 -3 12 -2 9 4 -6 10 -25 14 -25 6z"/>
<path d="M1360 686 c0 -2 8 -10 18 -17 15 -13 16 -12 3 4 -13 16 -21 21 -21
13z"/>
<path d="M652 508 c-2 -44 0 -48 21 -47 16 1 17 3 5 6 -12 3 -18 17 -21 46
l-4 42 -1 -47z"/>
<path d="M931 513 c-1 -34 3 -43 20 -48 12 -4 25 -3 30 2 6 6 1 9 -13 9 -14
-1 -24 6 -26 17 -5 25 26 33 44 11 14 -18 14 -17 4 4 -8 16 -18 22 -30 19 -12
-3 -21 1 -23 12 -3 9 -5 -3 -6 -26z"/>
<path d="M1090 513 c0 -24 2 -43 4 -43 8 0 12 60 4 72 -4 8 -8 -4 -8 -29z"/>
<path d="M713 523 c-18 -7 -16 -50 3 -57 26 -10 29 -7 8 9 -18 14 -18 14 9 15
19 0 27 5 26 18 0 10 -3 12 -6 5 -2 -7 -14 -13 -26 -13 -22 1 -22 1 -3 15 19
15 14 19 -11 8z"/>
<path d="M806 523 c7 -4 14 -19 17 -33 4 -22 5 -21 4 4 -1 17 -9 31 -17 33
-10 3 -11 2 -4 -4z"/>
<path d="M857 523 c-4 -3 -7 -11 -7 -17 0 -6 4 -5 9 3 11 17 41 7 41 -13 0
-21 -19 -30 -35 -16 -9 7 -15 8 -15 2 0 -13 26 -23 45 -16 20 8 19 50 -1 58
-20 8 -29 8 -37 -1z"/>
<path d="M1015 519 c-4 -6 -4 -13 -1 -16 3 -4 6 -1 6 5 0 6 8 13 18 15 15 4
15 5 0 6 -9 0 -20 -4 -23 -10z"/>
<path d="M1303 523 c-18 -7 -16 -50 3 -57 24 -9 31 -7 12 5 -10 5 -18 16 -18
24 0 8 8 19 18 24 17 11 7 13 -15 4z"/>
<path d="M770 510 c0 -5 5 -10 10 -10 6 0 10 5 10 10 0 6 -4 10 -10 10 -5 0
-10 -4 -10 -10z"/>
<path d="M1062 495 c0 -16 2 -22 5 -12 2 9 2 23 0 30 -3 6 -5 -1 -5 -18z"/>
<path d="M1123 505 c0 -8 4 -12 9 -9 4 3 8 9 8 15 0 5 -4 9 -8 9 -5 0 -9 -7
-9 -15z"/>
<path d="M1201 510 c-1 -21 16 -46 26 -37 4 5 3 11 -3 15 -6 4 -14 14 -17 22
-5 13 -5 13 -6 0z"/>
<path d="M1230 519 c0 -4 7 -19 15 -35 l14 -28 11 28 c13 35 12 46 -1 23 -10
-18 -11 -18 -25 0 -7 10 -14 15 -14 12z"/>
<path d="M1342 495 c0 -16 2 -22 5 -12 2 9 2 23 0 30 -3 6 -5 -1 -5 -18z"/>
<path d="M1013 480 c2 -8 12 -16 23 -17 13 -2 15 -1 4 4 -8 3 -19 11 -23 17
-6 7 -7 6 -4 -4z"/>
<path d="M1137 469 c7 -7 15 -10 18 -7 3 3 -2 9 -12 12 -14 6 -15 5 -6 -5z"/>
</g>
</svg>
